<?xml version="1.0" encoding="UTF-8"?>
<svg width="467px" height="215px" viewBox="0 0 467 215" version="1.1" xmlns="http://www.w3.org/2000/svg" xmlns:xlink="http://www.w3.org/1999/xlink">
    <title>编组 13</title>
    <g id="页面-1" stroke="none" stroke-width="1" fill="none" fill-rule="evenodd">
        <g id="首页" transform="translate(-853.000000, -1923.000000)">
            <g id="编组-13" transform="translate(853.000000, 1923.000000)">
                <rect id="矩形" fill="#00AEEF" x="231" y="42" width="167" height="150"></rect>
                <g id="编组" opacity="0.18875558" transform="translate(344.000000, 0.000000)" fill="#A0A0A0">
                    <path d="M85.527,205.7947 L36.072,205.7947 L24.286,94.4367 L36.315,94.4367 L43.29,169.1327 C43.486,171.2297 44.9,172.7727 46.538,172.7727 C46.665,172.7727 46.795,172.7637 46.924,172.7437 C48.72,172.4797 50.005,170.4317 49.795,168.1717 L41.675,81.2177 L79.923,81.2177 L71.804,168.1717 C71.593,170.4317 72.879,172.4797 74.674,172.7437 C76.464,173.0037 78.098,171.3937 78.309,169.1327 L85.284,94.4367 L97.312,94.4367 L85.527,205.7947 Z M101.052,86.1957 L86.052,86.1957 L86.857,77.5777 C86.966,76.4097 86.673,75.2387 86.052,74.3587 C85.43,73.4807 84.54,72.9777 83.605,72.9777 L77.679,72.9777 L77.679,59.7757 C77.679,57.5007 76.214,55.6557 74.405,55.6557 C72.596,55.6557 71.131,57.5007 71.131,59.7757 L71.131,72.9777 L50.468,72.9777 L50.468,59.7757 C50.468,57.5007 49.003,55.6557 47.193,55.6557 C45.384,55.6557 43.919,57.5007 43.919,59.7757 L43.919,72.9777 L37.994,72.9777 C37.058,72.9777 36.169,73.4807 35.547,74.3587 C34.925,75.2387 34.632,76.4097 34.741,77.5777 L35.546,86.1957 L20.546,86.1957 C19.602,86.1957 18.704,86.7087 18.083,87.6017 C17.461,88.4947 17.175,89.6837 17.3,90.8597 L29.959,210.4587 C30.175,212.5057 31.563,214.0347 33.205,214.0347 L88.394,214.0347 C90.036,214.0347 91.423,212.5057 91.64,210.4587 L104.298,90.8597 C104.423,89.6837 104.137,88.4947 103.516,87.6017 C102.894,86.7087 101.997,86.1957 101.052,86.1957 L101.052,86.1957 Z" id="Fill-1"></path>
                    <path d="M51.7965,15.4471 C51.7965,10.5161 55.8355,6.5061 60.7995,6.5061 C65.7635,6.5061 69.8015,10.5161 69.8015,15.4471 C69.8015,20.3781 65.7635,24.3891 60.7995,24.3891 C55.8355,24.3891 51.7965,20.3781 51.7965,15.4471 M76.3515,15.4471 C76.3515,6.9301 69.3745,0.0011 60.7995,0.0011 C52.2245,0.0011 45.2475,6.9301 45.2475,15.4471 C45.2475,23.9651 52.2245,30.8941 60.7995,30.8941 C69.3745,30.8941 76.3515,23.9651 76.3515,15.4471" id="Fill-3"></path>
                    <path d="M121.9469,57.1424 C121.1189,54.1154 119.3989,51.6864 117.1049,50.3024 C114.8109,48.9184 112.2289,48.7544 109.8369,49.8364 L93.1979,57.3664 L84.4069,45.3944 C80.2159,39.6864 74.2689,36.4134 68.0929,36.4134 L54.3799,36.4134 C48.2029,36.4134 42.2569,39.6864 38.0649,45.3944 L29.2739,57.3664 L12.6349,49.8364 C10.2409,48.7544 7.6599,48.9184 5.3659,50.3024 C3.0719,51.6864 1.3519,54.1154 0.5249,57.1424 C-1.1521,63.2714 1.3149,69.8504 6.1409,72.1194 L25.1449,81.0544 C26.8399,81.8504 28.7249,80.7684 29.3589,78.6364 C29.9919,76.5054 29.1329,74.1314 27.4369,73.3354 L8.4339,64.4014 C6.9589,63.7064 6.2049,61.6964 6.7169,59.8234 C6.9699,58.8984 7.4959,58.1564 8.1969,57.7334 C8.8979,57.3104 9.6859,57.2604 10.4189,57.5904 L29.0989,66.0434 C30.3359,66.6034 31.7199,66.1784 32.6129,64.9624 L42.8749,50.9874 C45.8309,46.9604 50.0239,44.6534 54.3799,44.6534 L68.0929,44.6534 C72.4479,44.6534 76.6409,46.9604 79.5959,50.9874 L89.8599,64.9624 C90.7529,66.1784 92.1359,66.6034 93.3729,66.0434 L112.0529,57.5904 C112.7849,57.2584 113.5739,57.3094 114.2749,57.7334 C114.9759,58.1564 115.5019,58.8984 115.7549,59.8244 C116.2669,61.6964 115.5129,63.7064 114.0379,64.4014 L95.0349,73.3354 C93.3409,74.1314 92.4799,76.5054 93.1129,78.6364 C93.6049,80.2934 94.8529,81.3164 96.1809,81.3164 C96.5619,81.3164 96.9489,81.2314 97.3269,81.0544 L116.3299,72.1194 C121.1569,69.8504 123.6239,63.2714 121.9469,57.1424" id="Fill-5"></path>
                </g>
                <text id="DESIGN-EVENTS" font-family="PingFangSC-Medium, PingFang SC" font-size="38" font-weight="400" letter-spacing="3.16892925">
                    <tspan x="0" y="94" fill="#000E48">DESIGN EV</tspan>
                    <tspan x="232.504363" y="94" fill="#FFFFFF">ENTS</tspan>
                </text>
                <text id="广发银行-X-PDC设计活动" font-family="PingFangSC-Medium, PingFang SC" font-size="28" font-weight="400" letter-spacing="2.3350005">
                    <tspan x="0" y="147" fill="#000E48">广发银行 X PDC</tspan>
                    <tspan x="231.222005" y="147" fill="#FFFFFF">设计活动</tspan>
                </text>
            </g>
        </g>
    </g>
</svg>